<svg data-name="Layer 1" xmlns="http://www.w3.org/2000/svg" viewBox="0 0 67.42 153.61">
  <path d="M50.4 85.8c1.1-1.86 3.45-6.5 2.78-11l2.49-.91-.55-1.52-2.31.84a9.09 9.09 0 0 0-.56-1.34c-1.94-3.76-1.04-5.35.32-7.75a18.26 18.26 0 0 0 2.47-6.47 16.86 16.86 0 0 0 .23-3.56l2.66-.61-.37-1.58-2.47.57c-.58-3.14-2.31-5-3.9-6.7-1.6-1.7-2.97-3.17-3.11-5.73-.1-1.77.92-3.32 2.2-5.28 2.27-3.48 5.1-7.8 3.2-15.79a20.5 20.5 0 0 0-.79-2.51l2.67-1.7-.87-1.36-2.43 1.55C49.06 8.68 43.24 5.32 37.4 4l.74-3.7L36.56 0l-.74 3.7c-.9-.14-1.8-.25-2.68-.3a24.66 24.66 0 0 0-12.48 2.25l-1.09-1.56-1.32.92.99 1.42a15.73 15.73 0 0 0-6.82 7.8 21.54 21.54 0 0 0-1.45 6.84l-3.39-.97-.44 1.55 3.87 1.1A20.55 20.55 0 0 0 14 31.27c1.2 2.24 2.25 4.17 2.25 6.5a6.03 6.03 0 0 1-2.19 5.23c-1.37 1.36-3.08 3.06-3.62 7.85a13.3 13.3 0 0 0 2.1 9.02c1.32 2.35 2.32 4.15.6 8.03l-2.8-.93-.5 1.53 2.56.86-.3.55c-3.76 6.52.36 13.46 2.1 15.9H0l6.2 67.81h54.63l6.59-67.8zm-34.28-.13c-.07-.08-6.63-8.03-2.63-14.96l.46-.84 2.06.68.51-1.53-1.87-.62c1.96-4.56.66-6.89-.71-9.33a11.78 11.78 0 0 1-1.9-8.05c.47-4.23 1.83-5.58 3.15-6.89a7.59 7.59 0 0 0 2.67-6.37c0-2.74-1.2-4.94-2.45-7.26a19.95 19.95 0 0 1-2.73-7.26l1.44.4.44-1.55-1.98-.56a19.36 19.36 0 0 1 1.35-6.74 13.8 13.8 0 0 1 6.27-7l1.69 2.42 1.32-.92-1.57-2.25a23.66 23.66 0 0 1 11.4-2.03c.81.05 1.64.15 2.47.28l-.42 2.1 1.58.32.42-2.12c5.44 1.23 10.87 4.38 13.6 10.23l-1.82 1.16.87 1.36 1.56-1a18.9 18.9 0 0 1 .61 2c1.74 7.32-.77 11.15-2.98 14.53-1.33 2.04-2.59 3.96-2.46 6.26.17 3.15 1.88 4.98 3.54 6.75 1.54 1.65 3.03 3.25 3.51 5.96l-2.57.59.37 1.57 2.36-.54a15.91 15.91 0 0 1-.23 2.93 16.64 16.64 0 0 1-2.29 5.94c-1.44 2.54-2.68 4.74-.34 9.28a7.37 7.37 0 0 1 .46 1.16l-1.94.7.55 1.52 1.71-.62c.55 4.97-3.02 10.3-3.06 10.37l-.04.07h-4.42a42.33 42.33 0 0 0 1.28-6.5 14.82 14.82 0 0 0-1.07-6.05 19.59 19.59 0 0 1-1.25-6.05 16.3 16.3 0 0 1 1.47-5.97 18.35 18.35 0 0 0 1.63-6.82 20.52 20.52 0 0 0-1.4-6.47l1.7-.99-.82-1.4-1.44.85-.48-1.24a26.92 26.92 0 0 1-1.82-5.94c-.24-2.32 1.06-5.38 2.2-8.09a35.08 35.08 0 0 0 1.65-4.41c1.02-3.89-2.21-12.52-2.35-12.9l-.29-.75-1.5.57.28.76c.89 2.36 3.04 9.1 2.3 11.9a34.27 34.27 0 0 1-1.58 4.2c-1.27 3.03-2.6 6.15-2.32 8.88a27.72 27.72 0 0 0 1.93 6.36l.56 1.49-3.18 1.85.81 1.4 2.93-1.7a18.13 18.13 0 0 1 1.2 5.63 16.85 16.85 0 0 1-1.51 6.24 17.79 17.79 0 0 0-1.58 6.55 21.17 21.17 0 0 0 1.32 6.54 13.67 13.67 0 0 1 1 5.38 41.82 41.82 0 0 1-1.35 6.68h-8.12c.22-1.21.61-3.48 1-6.08a18.6 18.6 0 0 0-.24-5.5l3.65-2.07-.8-1.4-3.15 1.8c-.12-.64-.25-1.27-.38-1.86a31.3 31.3 0 0 1-.62-3.55 64.16 64.16 0 0 1 .17-7.14c.08-1.38.16-2.85.22-4.4a47.1 47.1 0 0 0-.98-9.34 31.36 31.36 0 0 1-.57-4.25c0-.71-.05-1.7-.1-2.82a64.3 64.3 0 0 1 .1-10.25 147.11 147.11 0 0 0 .39-14.84l-.02-.8-1.61.02.01.81c0 .07.1 5.18-.05 9.74l-3.54-2.75-1 1.27 4.45 3.46a43.13 43.13 0 0 1-.24 2.89 65.7 65.7 0 0 0-.1 10.52c.05 1.11.1 2.07.1 2.75a31.77 31.77 0 0 0 .6 4.52 45.93 45.93 0 0 1 .95 9.01l-.22 4.37a64.88 64.88 0 0 0-.17 7.34 31.8 31.8 0 0 0 .65 3.77c.16.75.33 1.55.48 2.37l-2.2 1.26.8 1.4 1.68-.96a15.79 15.79 0 0 1 .15 4.39c-.42 2.8-.85 5.22-1.05 6.32H23.2c-.22-.74-1.2-4.04-1.89-6.43-.73-2.56-.33-6.1 1.14-9.95 1.5-3.91-.74-9.44-1.94-12.4l-.38-.96c-.82-2.12-.02-6.9 2.2-9.67 2.69-3.36 1.55-11.4-.65-17.44-2.22-6.11-1.13-13.09-1.12-13.16l.13-.8-1.6-.25-.13.8a31.25 31.25 0 0 0 1.2 13.96c2.47 6.78 2.85 13.46.9 15.88-2.39 3-3.55 8.36-2.44 11.26.1.28.24.61.39.98 1.12 2.76 3.2 7.9 1.93 11.23-1.59 4.17-2 8.07-1.18 10.97l1.75 5.98h-5.28zM38 26.44L37.28 25l5.31-2.66.73 1.44zm-14.3 22.1l.78-1.42 4.9 2.72-.78 1.42z" fill="#272727"/>
</svg>