<?xml version="1.0" encoding="UTF-8"?>
<svg width="62px" height="85px" viewBox="0 0 62 85" version="1.1" xmlns="http://www.w3.org/2000/svg" xmlns:xlink="http://www.w3.org/1999/xlink">
    <!-- Generator: Sketch 51.2 (57519) - http://www.bohemiancoding.com/sketch -->
    <title>Page 1</title>
    <desc>Created with Sketch.</desc>
    <defs>
        <polygon id="path-1" points="0 0 62 0 62 85 0 85"></polygon>
    </defs>
    <g id="directors" stroke="none" stroke-width="1" fill="none" fill-rule="evenodd">
        <g id="1280-copy" transform="translate(-796.000000, -706.000000)">
            <g id="Page-1" transform="translate(796.000000, 706.000000)">
                <mask id="mask-2" fill="white">
                    <use xlink:href="#path-1"></use>
                </mask>
                <g id="Clip-2"></g>
                <path d="M58.6734267,61.680254 C58.2074583,63.3934052 57.6606762,64.9986818 57.0442567,66.5114944 C52.6390499,69.9617689 48.4169635,69.904407 46.288296,69.561948 C44.0513038,69.2015099 42.1005985,68.2040981 41.3191127,67.0209022 C39.934963,64.9267654 41.7042674,61.0056097 42.5020878,59.6717319 C42.6387834,59.4439967 42.6491,59.1623241 42.5287392,58.9251713 C42.409238,58.6871623 42.1762538,58.5279188 41.9106003,58.5013783 C41.8770712,58.4979537 38.5800438,58.1417963 37.2896037,55.5716415 C36.0636425,53.1290526 39.357231,49.7909334 39.3907601,49.7575437 C39.6117082,49.5358015 39.6701692,49.2036163 39.5506681,48.9142384 C39.4320266,48.6248605 39.1414412,48.4356519 38.8276433,48.4330835 C38.7304949,48.4322273 36.4384806,48.360311 35.0947377,43.7730726 C34.5195849,41.808214 34.6958275,39.9923251 35.6200268,38.3767748 C37.9447105,34.3100741 44.2094924,32.6628463 44.2731117,32.6465795 C44.348767,32.6268881 44.4132461,32.5875053 44.4768654,32.5481225 C49.0729301,33.1046184 54.0446926,34.7381478 57.1671967,38.8022801 C60.9551244,43.7328336 61.4623593,51.4304559 58.6734267,61.680254 M31.1649562,83.4460923 C14.9970563,83.4460923 4.97357732,74.4000376 2.17604746,57.2856488 C0.724839597,48.401406 1.83129962,41.7397222 5.46533733,37.4838129 C8.6574788,33.746729 13.7384258,31.8512184 20.5697633,31.8512184 C26.1717007,31.8512184 30.9010221,33.1936577 30.9483067,33.2064999 C31.0764051,33.2441704 31.2139603,33.247595 31.3437781,33.2167737 C31.3824655,33.2073561 35.3131067,32.3006959 40.2255485,32.3006959 C40.3811579,32.3006959 40.5445047,32.3049766 40.7026933,32.3066889 C38.5198634,33.3032446 35.7593015,34.9967044 34.2676868,37.6028174 C33.1242588,39.5993534 32.8990121,41.8219124 33.5979647,44.2079955 C34.6227513,47.7079265 36.2622379,49.0888925 37.4409144,49.6334023 C36.3284364,51.0588879 34.6588595,53.8036969 35.8951373,56.2668333 C37.0420042,58.551891 39.29877,59.4731057 40.6536892,59.8318315 C39.7991272,61.581797 38.3384624,65.3351477 40.0157767,67.8744813 C41.0422828,69.428389 43.3506318,70.6620976 46.0398369,71.0953082 C46.6382022,71.1911967 47.3852991,71.26825 48.2450194,71.26825 C50.2868552,71.26825 52.9657436,70.8316148 55.8182956,69.2057906 C50.9978438,78.6602277 42.7376512,83.4460923 31.1649562,83.4460923 M58.4051939,37.8579494 C53.8899429,31.9813528 46.0269411,30.7476443 40.2255485,30.7476443 C36.723048,30.7476443 33.7613116,31.1791426 32.1897428,31.4633836 C32.8173387,29.2468177 34.7646051,23.3573789 39.0881385,17.617766 C39.3469143,17.2744508 39.2764173,16.7873029 38.9316694,16.5304586 C38.5877813,16.2727582 38.0986005,16.3421062 37.8406844,16.6862775 C36.2502018,18.7975373 34.9829741,20.9070847 33.9667847,22.864238 C33.9968749,21.0962933 33.9495903,12.156401 30.1117989,6.21216879 C25.8364098,-0.408419941 14.7210861,0.00509930892 14.7210861,0.00509930892 C14.7210861,0.00509930892 13.0111024,12.005719 19.4237561,18.6263078 C25.288768,24.6818391 32.5791961,23.4695343 33.7828046,23.2178269 C31.8209228,27.078196 30.8812485,30.2604963 30.5597132,31.5010541 C28.9314029,31.1046578 25.0678199,30.2981668 20.5697633,30.2981668 C13.3635877,30.2981668 7.7298406,32.435111 4.27720388,36.4778396 C0.333666861,41.0967554 -0.891434566,48.18052 0.637148127,57.5347877 C3.57309295,75.5027556 14.1295985,85 31.1649562,85 C46.0673479,85 56.1002838,77.0763547 60.1787969,62.0869241 C63.1009862,51.3448412 62.5043403,43.1934607 58.4051939,37.8579494" id="Fill-1" fill="#272727" mask="url(#mask-2)"></path>
            </g>
        </g>
    </g>
</svg>