<svg data-name="Layer 1" xmlns="http://www.w3.org/2000/svg" viewBox="0 0 129 290">
  <path d="M128.62 68.05a24.05 24.05 0 0 0-22.32-2.18C94.35 70.7 92.73 80.22 92.5 82.62c-.88.44-1.61.8-2.16 1.09.17-1.4.2-3.16.24-4.99.06-3.13.13-6.68.9-8.42a31.97 31.97 0 0 1 1.8-3.53 4.83 4.83 0 0 0 1.2.18 4.01 4.01 0 0 0 3.45-1.98l6.1-9.4a.74.74 0 0 0 .22-.1c.19 0 .37.04.56.04a10.97 10.97 0 0 0 2.28-.24 10.82 10.82 0 0 0 6.88-4.73l9.32-14.1.07-.1c.4-.62.58-1.76-.7-3.65l1.42-2.2 2.27-3.52a1.32 1.32 0 0 0 .1-.1c1.09-1.7-2.05-4.43-3.6-5.64l1.56-2.42a2.26 2.26 0 0 0-3.78-2.48L119 18.85c-1.7-.91-4.02-1.9-5.4-1.46a.7.7 0 0 0-.07 0c-.18.04-.33.08-.71.54l-.03.02v.02c-.54.66-1.54 2.17-3.7 5.62-2.63-.64-3.74.01-4.19.7v.01a.72.72 0 0 0-.1.1l-9.1 14.2a10.96 10.96 0 0 0-.5 11.09.74.74 0 0 0 0 .11l-6.06 9.43a3.97 3.97 0 0 0-.4 3.76 5.08 5.08 0 0 0 .56 1 72.48 72.48 0 0 0-2.23 3.98c-1.16 2.2-1.23 5.49-1.3 8.96-.06 2.99-.13 6.08-.97 8.07a36.12 36.12 0 0 1-3.53 6.22c-2.45 3.69-4.77 7.17-4.9 15.36a61.63 61.63 0 0 0 1.24 11.23.73.73 0 0 0 .05.16 30.25 30.25 0 0 0-4.32 8.97l-.06.23c-1.42.5-2.37.8-2.68.91-.02-3.03-1.1-6.42-2.23-10.02-1.21-3.83-2.47-7.8-2.47-11.47 0-3.07 1.28-6.2 2.51-9.23 1.26-3.08 2.55-6.26 2.55-9.45 0-4.44-1.38-8.34-2.73-12.12a33.19 33.19 0 0 1-2.33-9.14 98.78 98.78 0 0 1-.12-7.47 4.01 4.01 0 0 0 2.26-3.9l-.33-11.2a.74.74 0 0 0 .12-.2 10.9 10.9 0 0 0 5.2-9.63l-.3-16.88a.78.78 0 0 0-.04-.22c-.04-.78-.57-1.82-2.65-2.6l-.21-6.75a1.35 1.35 0 0 0 .02-.15c-.06-2-4.1-2.46-6.16-2.56l-.08-2.9a2.26 2.26 0 0 0-4.52.13l.08 2.93c-1.72.22-4.83.81-5.48 2.28-.29.32-.4.7.02 7.36-2.5.98-3.05 2.14-3.03 2.97a.72.72 0 0 0-.02.15l.57 16.87a10.95 10.95 0 0 0 5.9 9.39.73.73 0 0 0 .1.13l.33 11.18a3.96 3.96 0 0 0 1.8 3.33 5.16 5.16 0 0 0 1.28.58 75.78 75.78 0 0 0 .2 7.98 36.56 36.56 0 0 0 2.49 9.61c1.26 3.5 2.56 7.13 2.56 11.19 0 2.87-1.18 5.75-2.44 8.8a69.44 69.44 0 0 0-1.46 3.75c-.33-.23-1.2-.82-2.54-1.7.03-2.94-.82-11.36-10.32-17.44a.72.72 0 0 0-.01-.1q-.48-1.27-.99-2.48a76.24 76.24 0 0 0-8.18-14.57 4.03 4.03 0 0 0-.52-4.34l-6.78-8.9a.75.75 0 0 0-.01-.23 11 11 0 0 0 .76-2.78 10.89 10.89 0 0 0-2.14-8.09L21.13 26.53a.75.75 0 0 0-.23-.2c-.56-.56-1.6-.96-3.53-.42l-2.2-2.88-1.91-2.5c-.02-.02-.02-.05-.03-.07-1.22-1.6-4.76.4-6.5 1.52l-1.75-2.3a2.26 2.26 0 0 0-3.59 2.75l1.77 2.33c-1.4 1.3-4 4.05-2.9 5.59a48.9 48.9 0 0 0 4.07 5.42c-1.48 2.28-1.23 3.54-.74 4.2h.01a.72.72 0 0 0 .06.13l10.28 13.37a10.7 10.7 0 0 0 10.2 4.18.74.74 0 0 0 .2.04l6.77 8.89a3.94 3.94 0 0 0 3.22 1.65h.18a5.26 5.26 0 0 0 1.62-.36 72.85 72.85 0 0 1 6.2 10.7 24.24 24.24 0 0 0-16.76 1.48l-.41.23.02.47c.02.59.73 14.5 12.12 19.51a28.08 28.08 0 0 0 11.24 2.37c.24 2.68.37 5.4.37 8.13v21.28c-.61-.31-1.63-.82-2.97-1.47-.26-2.57-2.02-11.83-13.82-16.56a24.29 24.29 0 0 0-22.4 2.16l-.4.28.1.47c.1.58 2.7 14.12 14.68 17.47a28.2 28.2 0 0 0 7.6 1.04 29.06 29.06 0 0 0 13.75-3.41c2.13 1.03 3.4 1.68 3.46 1.7v11.84H43.5a.75.75 0 0 0-.75.75v45.05a34.39 34.39 0 0 0-8.77-1.18c-6.24 0-11.21 1.89-14.78 5.61-4.44 4.65-6.49 12.05-6.09 22 1.2 29.94 21.2 70.28 21.4 70.68a.75.75 0 0 0 .46.39c.12.03 3.3.92 30.93 1.12l5.87.02c18.59 0 22.33-.73 22.48-.76a.75.75 0 0 0 .51-.39 334.35 334.35 0 0 0 14.8-32.95c9.2-24.05 12.14-41.6 8.75-52.15-3.95-12.25-12.34-14.82-18.69-14.82a33.75 33.75 0 0 0-13.08 2.97v-45.53a.75.75 0 0 0-.75-.76H81.5a48.17 48.17 0 0 1 .98-6.03c.43-2.13.91-4.53 1.21-7.1a22.25 22.25 0 0 0 3.78.32 27.52 27.52 0 0 0 26.4-21.36l.08-.47-.39-.27a29.64 29.64 0 0 0-15.48-4.94 19.84 19.84 0 0 0-9.7 2.46 30.97 30.97 0 0 0-6.4 4.7 44.2 44.2 0 0 1-.54-6.33c0-6.52 1.98-9.48 4.27-12.9a31.72 31.72 0 0 0 4.23-8.08L93.13 84a28.97 28.97 0 0 0 13.59 3.35 27.94 27.94 0 0 0 7.57-1.04c11.92-3.36 14.52-16.94 14.62-17.52l.09-.46zm-117.26 50.4a141.14 141.14 0 0 1 14.06 4.75l-7.63 5.95a24.59 24.59 0 0 1-6.43-10.7zm7.62 11.69l8.06-6.3c3.08 1.23 6.04 2.49 8.74 3.68l-7.66 5.98a.73.73 0 0 0-.13.16 26.7 26.7 0 0 1-3.49-.73 16.13 16.13 0 0 1-5.52-2.79zm12.71 3.78c-.52 0-1.05-.03-1.58-.06l7.23-5.64c2.44 1.1 4.62 2.12 6.41 2.98a28.48 28.48 0 0 1-12.06 2.72zM92.1 64.6a4.96 4.96 0 0 1-1.94-2.17 2.41 2.41 0 0 1 .03-1.92 11.97 11.97 0 0 0 2.6 2.41 12.33 12.33 0 0 0 3.66 1.51c-1.36 1.68-3.28.86-4.34.17zm-.37-6.58a12.07 12.07 0 0 0 2.64 2.47 12.4 12.4 0 0 0 3.7 1.52l-.7 1.08h-.01a11.52 11.52 0 0 1-3.75-1.44 11.2 11.2 0 0 1-2.59-2.53zm1.57-2.44a12.08 12.08 0 0 0 2.65 2.47 12.37 12.37 0 0 0 3.7 1.52l-.7 1.09h-.01a11.53 11.53 0 0 1-3.75-1.44 11.22 11.22 0 0 1-2.6-2.54zm1.38-2.14a12.1 12.1 0 0 0 2.65 2.48 12.38 12.38 0 0 0 3.7 1.52l-.5.78h-.02a11.58 11.58 0 0 1-3.74-1.44 11.21 11.21 0 0 1-2.6-2.55zm1.45-2.26a10.82 10.82 0 0 0 6.3 4.12l-.52.79h-.02a11.52 11.52 0 0 1-3.74-1.44 11.24 11.24 0 0 1-2.61-2.56zm26.7-21.51l-2.27 3.54c-.37.23-2.71-.14-6.31-2.5-3.6-2.34-4.9-4.34-4.85-4.73l.58-.92c.6-.98 2.07-3.33 3.1-4.88a7.64 7.64 0 0 0 .81 1.1 21 21 0 0 0 4.2 3.5 18.05 18.05 0 0 0 6.14 2.72l-1.4 2.17zm2.4-3.7l-.04.04c-.37.17-1.99-.1-4.49-1.44l1.33-2.06c2.4 1.87 3.14 3.18 3.2 3.46zm-3.32-8.81a.75.75 0 0 1 1.36.26.74.74 0 0 1-.1.56l-3.77 5.83-.48-.3c-.28-.18-.53-.36-.78-.54zm-3.72 2.96l-1.26 1.95c-2.05-1.65-2.87-2.93-2.88-3.24l.02-.03c.3-.15 1.67.03 4.12 1.32zm-9.92 4.83l-.13.2c-.51.8-.15 1.92 1.08 3.33a20.97 20.97 0 0 0 4.21 3.5c1.86 1.22 4.85 2.79 6.78 2.79a1.76 1.76 0 0 0 1.57-.69c.38.7.46 1.18.35 1.4v.01l-.06.08c-.22.22-1.04.43-2.89-.08a24.2 24.2 0 0 1-6.39-3.07c-5.16-3.36-7.07-6.59-6.6-7.3.17-.27.9-.38 2.08-.17zm-11.3 14.47l8.05-12.53c1 2.15 3.81 4.75 6.95 6.8a25.69 25.69 0 0 0 6.81 3.26 8.97 8.97 0 0 0 2.14.36l-8.2 12.4a9.4 9.4 0 1 1-15.74-10.29zm-26 90.14l3.43-1.17a19.44 19.44 0 0 0 4.43 2.64v.05a67.88 67.88 0 0 1-1.38 8.78 55.57 55.57 0 0 0-.96 5.74l-9.95-.02a65.15 65.15 0 0 1 1.93-7.06 39.48 39.48 0 0 0 2.1-8.98.72.72 0 0 0 .16.05.75.75 0 0 0 .24-.03zm-8.7-84h.25a12.33 12.33 0 0 0 3.73-.8l.02.95a11.5 11.5 0 0 1-3.9.97 10.9 10.9 0 0 1-3.56-.6L58.77 45a12.6 12.6 0 0 0 3.48.56zm4.08 2.7h-.02a11.5 11.5 0 0 1-3.89.96 10.85 10.85 0 0 1-3.56-.6l-.02-.94a12.27 12.27 0 0 0 3.3.51h.25a12.39 12.39 0 0 0 3.91-.86zm-7.42 1.96a12.27 12.27 0 0 0 3.31.52h.25a12.39 12.39 0 0 0 3.9-.87l.04 1.29h-.01a11.5 11.5 0 0 1-3.9.96 10.86 10.86 0 0 1-3.55-.6zm.12 4.21l-.04-1.3a12.26 12.26 0 0 0 3.32.5h.24a12.38 12.38 0 0 0 3.91-.86l.04 1.3h-.01a11.5 11.5 0 0 1-3.9.96 11.12 11.12 0 0 1-3.56-.6zm9.57-38.19c-.17.4-2.32 1.44-6.6 1.56-4.28.14-6.49-.77-6.67-1.12l-.1-1.46c-.07-1.2-.24-3.79-.28-5.46a16.08 16.08 0 0 0 6.1.97h.74a18.04 18.04 0 0 0 6.59-1.27zm-.28-8.62v.06c-.21.35-1.7 1.06-4.51 1.38l-.07-2.45c2.8.15 4.34.75 4.58 1.01zm-7-6.1a.75.75 0 0 1 .78.72l.2 6.94c-.19.01-.36.03-.56.03h-.94l-.2-6.93a.75.75 0 0 1 .72-.77zm-2.1 5.26l.07 2.39c-2.66-.19-4.07-.8-4.22-1.03.13-.32 1.5-1.01 4.15-1.36zm-5.41 9.7l.01.25c.03.95.96 1.66 2.78 2.11a19.84 19.84 0 0 0 4.63.49l.81-.01a20.96 20.96 0 0 0 5.4-.8c1.8-.56 2.69-1.33 2.66-2.27v-.05c.78.38 1.08.77 1.1 1.05 0 .28-.5.98-2.44 1.66a24.15 24.15 0 0 1-7 1.13c-6.14.19-9.54-1.38-9.57-2.23 0-.31.5-.83 1.62-1.33zm-1.07 18.35l-.5-14.9c1.87 1.09 5.19 1.63 8.6 1.63h.97a25.7 25.7 0 0 0 7.45-1.22 8.89 8.89 0 0 0 2-.97l.26 14.91a9.4 9.4 0 1 1-18.78.55zm6.4 21.21a12.2 12.2 0 0 0 3.25.5h.25a12.33 12.33 0 0 0 3.86-.85c-.16 2.16-2.2 2.58-3.47 2.62a4.93 4.93 0 0 1-2.83-.67 2.4 2.4 0 0 1-1.07-1.6zm5.7 41.6c1.26-3.04 2.56-6.2 2.56-9.37 0-4.32-1.35-8.07-2.66-11.7a34.89 34.89 0 0 1-2.4-9.21 74.6 74.6 0 0 1-.2-7.58c.22.02.44.04.67.04h.26a7.7 7.7 0 0 0 1.2-.13c-.04 1.74-.03 4.14.13 7.04a34.31 34.31 0 0 0 2.41 9.56c1.3 3.66 2.65 7.44 2.65 11.62 0 2.9-1.19 5.8-2.44 8.87-1.29 3.17-2.62 6.44-2.62 9.8 0 3.92 1.29 8 2.53 11.94 1.12 3.51 2.17 6.84 2.17 9.65 0 3.31-1.02 6.51-2.09 9.9a64.02 64.02 0 0 0-2.03 7.51h-2.15a57.18 57.18 0 0 1 2.04-7.36c1.11-3.4 2.17-6.61 2.17-10.05 0-3.03-1.09-6.43-2.24-10.03-1.21-3.8-2.46-7.73-2.46-11.37 0-3.03 1.27-6.13 2.5-9.12zm-3.3 4.6a16.38 16.38 0 0 0-.7 4.53c0 3.88 1.28 7.92 2.53 11.83 1.1 3.49 2.16 6.78 2.16 9.57 0 3.2-1.02 6.3-2.1 9.57a56.66 56.66 0 0 0-2.13 7.84l-7.32-.01v-35.9a85 85 0 0 0-.35-7.45 24.3 24.3 0 0 0 5.32-1.45l.16-.07c1.36.9 2.15 1.44 2.19 1.47a.7.7 0 0 0 .25.08zm-12.86-1.12a27.1 27.1 0 0 1-5.37-.53l8.25-4.73c2.35 1.46 4.4 2.77 6 3.82a27.83 27.83 0 0 1-8.88 1.44zm-6.4-12.52l-1.56-8.86a22.78 22.78 0 0 1 6.58 2.56 26.98 26.98 0 0 1 2.31 1.51l.97 9.67a266.66 266.66 0 0 0-8.3-4.88zm-15.4-6.05c4.38 1.87 8.99 4.23 13.37 6.65l-8.48 4.96a24.97 24.97 0 0 1-4.88-11.61zm31.07 15.58a309.88 309.88 0 0 0-5.76-3.65l-.93-9.37a18.22 18.22 0 0 1 6.7 13.02zM31.64 64.78l-.8-1.04a12.04 12.04 0 0 0 3.2-1.67 12.45 12.45 0 0 0 2.66-2.99l.78 1.03v.01a11.58 11.58 0 0 1-2.6 3.06 11.12 11.12 0 0 1-3.24 1.6zm-2.55-3.35a12.02 12.02 0 0 0 3.18-1.66 12.45 12.45 0 0 0 2.68-3l.78 1.03-.01.01a11.65 11.65 0 0 1-2.6 3.06 11.13 11.13 0 0 1-3.24 1.6zm-1.54-2.02a12.02 12.02 0 0 0 3.19-1.66 12.44 12.44 0 0 0 2.67-3l.56.74v.01a11.58 11.58 0 0 1-2.61 3.06 11.12 11.12 0 0 1-3.24 1.6zm-1.62-2.13a10.81 10.81 0 0 0 5.93-4.56l.57.75v.01a11.58 11.58 0 0 1-2.6 3.07 11.12 11.12 0 0 1-3.25 1.6zM19.9 27.46c.51.68-1.15 4.04-6.04 7.79a24.22 24.22 0 0 1-6.14 3.55c-1.93.7-2.76.47-2.93.25-.19-.25-.05-.98.55-2.02l.14.18a1.63 1.63 0 0 0 1.39.59c1.92 0 4.95-1.89 6.8-3.3a21.07 21.07 0 0 0 3.93-3.81c1.12-1.5 1.4-2.64.82-3.4l-.05-.07c.75-.12 1.3-.05 1.53.24zm-2.7.7c.1.44-1.04 2.53-4.45 5.14-3.4 2.61-5.71 3.16-6.07 3l-.76-.96c-.71-.9-2.45-3.06-3.5-4.47a7.4 7.4 0 0 0 1.35-.4 23.56 23.56 0 0 0 8.63-6.61 8.16 8.16 0 0 0 .69-1.07l.89 1.17c1.4 1.84 3.06 4 3.23 4.2zm-5.23-6.83l.03.05c.03.4-.75 1.85-2.86 3.76l-1.48-1.95c2.36-1.52 3.96-1.93 4.3-1.86zm-9.24-.87a.75.75 0 0 1 1.06.13l4.2 5.53-.44.35-.76.55-4.2-5.5a.76.76 0 0 1 .14-1.06zm1.36 5.5l1.44 1.9c-2.25 1.4-3.74 1.74-4.01 1.65l-.01-.02c-.06-.36.65-1.7 2.58-3.52zm17.26 30.21a9.33 9.33 0 0 1-6.22-3.62l-9.06-11.8a9.05 9.05 0 0 0 2.16-.53 25.74 25.74 0 0 0 6.55-3.77c2.97-2.27 5.57-5.08 6.41-7.3l8.88 11.95a9.39 9.39 0 0 1 1.84 6.98 9.48 9.48 0 0 1-.78 2.7.74.74 0 0 0-.16.32 9.37 9.37 0 0 1-9.62 5.07zm13.1 10.54a2.42 2.42 0 0 1-1.8-.68 11.94 11.94 0 0 0 3.14-1.65 12.4 12.4 0 0 0 2.64-2.95c1.13 1.85-.29 3.39-1.3 4.16a4.94 4.94 0 0 1-2.68 1.12zm9.83 12.5a74.04 74.04 0 0 0-6.8-12.03c.2-.13.38-.24.57-.39a7.47 7.47 0 0 0 1-.93 74.78 74.78 0 0 1 7.7 13.83l.31.76a24.67 24.67 0 0 0-2.78-1.23zm-5.13.25l1.44 8.2A149.54 149.54 0 0 0 27.12 81a23.27 23.27 0 0 1 8.9-1.77 22.31 22.31 0 0 1 3.13.23zM32.81 95.3l8.98-5.26c2.96 1.67 5.78 3.35 8.32 4.9l-8.7 5a.73.73 0 0 0-.14.11 26.37 26.37 0 0 1-3.37-1.18 16.1 16.1 0 0 1-5.1-3.57zm17.24 7.3c.73-.04 1.43-.1 2.1-.18.2 2.42.33 4.85.33 7.24v35.9h-2.06v-34.81c0-2.73-.13-5.47-.37-8.16zm-5.8 54.62h40.78v1.4H44.25zm40.78-1.51H44.25v-1.37h40.78zm33.1 58.87H14.59c.03-1.51.13-2.94.28-4.3H118a41.84 41.84 0 0 1 .14 4.3zm-12.73 47.65H25.07q-.84-2.27-1.66-4.66h83.86c-.62 1.58-1.25 3.14-1.87 4.66zm-85.16-14.51c-1.43-4.85-2.7-9.84-3.69-14.77a6.8 6.8 0 0 1 4.17-1.52c4.54 0 8.5 2.85 8.5 7.37s-4 9.66-8.5 9l-.48-.08zm36.55-14.44a9.36 9.36 0 0 1 7.95-9.28c4.49-.66 9.31 2.84 9.31 7.37s-4.77 9-9.31 9-7.95-2.57-7.95-7.1zm53.66 9.63c-4.95.96-8.22-3.66-8.22-8.19s4.5-8.18 9.05-8.18a6.95 6.95 0 0 1 5.07 2.06c-.94 4.45-2.2 9.06-3.64 13.66a14.03 14.03 0 0 1-2.26.65zm-72.74 44.76l2.94-3.2 3.83 3.57c-3.28-.12-5.4-.26-6.77-.37zm9.02.45l3.57-3.57 2.93 3.74c-2.5-.05-4.64-.1-6.5-.17zm8.78.21l3.53-3.81 3.64 3.9c-2.63-.02-5.02-.05-7.17-.09zm10.4.13h-.28l3.85-3.62 3.34 3.64c-2.1 0-4.4 0-6.9-.02zm9.12 0l4.2-3.65 3.39 3.56c-2.13.04-4.64.08-7.59.1zm10.38-.17l3.61-3.78 3.12 3.44c-1.29.1-3.4.24-6.73.34zm8.36-.8l-4.72-5.19-5.07 5.3-4.65-4.87-5.41 4.7-4.36-4.73-5.42 5.08-5.1-5.48-4.65 5.02-3.96-5.05-4.78 4.8-5.08-4.73-4.73 5.14-.14-.03c-.91-1.85-5.44-11.3-10.08-23.7h79.15c-5 11.95-9.75 21.32-11 23.74zm5.85-97.06c8.5 0 14.31 4.63 17.25 13.77a25.6 25.6 0 0 1 .98 4.57H15.05c.79-5.1 2.53-9.1 5.24-11.94 3.27-3.41 7.87-5.15 13.69-5.15a32.57 32.57 0 0 1 9.28 1.4.75.75 0 0 0 1-.72v-32.23h40.77v32.96a.75.75 0 0 0 1.1.67 33.03 33.03 0 0 1 13.5-3.33zm-14.59-37.6H44.25v-5.78l40.78.06zm-4.02-13.56a49.03 49.03 0 0 0-1 6.32h-2.02c.17-1.66.53-3.5.93-5.44a71.7 71.7 0 0 0 1.35-8.56c.61.21 1.26.4 1.95.57a77.31 77.31 0 0 1-1.2 7.1zm6.47-7.99a19.72 19.72 0 0 1-11.37-3.5c2-.72 4.48-1.62 7.25-2.68l9.06 5.63a23.26 23.26 0 0 1-4.94.55zm9.87-2.11a29.78 29.78 0 0 1-2.93 1.03l-9.3-5.78c3.13-1.2 6.56-2.59 10.08-4.1l8.93 4.67a25.07 25.07 0 0 1-6.78 4.18zm7.96-5.27l-8.33-4.36a165.48 165.48 0 0 0 15.23-7.54 26.35 26.35 0 0 1-6.9 11.9zm5.74-12.98a167.83 167.83 0 0 1-15.1 7.43l1.4-11.04c.25 0 .49-.04.74-.04a27.8 27.8 0 0 1 12.96 3.65zm-21.94-1.38a18.13 18.13 0 0 1 6.7-2.14l-1.48 11.64a296.5 296.5 0 0 1-10.08 4.1l1.52-11.17a.75.75 0 0 0-.02-.26 29.13 29.13 0 0 1 3.36-2.17zm-5 3.49l-1.47 10.73a338.78 338.78 0 0 1-7.6 2.79 31.41 31.41 0 0 1 9.06-13.52zm.36-20.2c-2.32 3.48-4.52 6.77-4.52 13.75a49.8 49.8 0 0 0 .72 7.66 32.2 32.2 0 0 0-1.78 2.07 54.16 54.16 0 0 1-1-9.72c.12-7.74 2.21-10.9 4.64-14.55a37.32 37.32 0 0 0 3.66-6.46c.96-2.26 1.03-5.5 1.1-8.63.06-3.14.13-6.4 1.12-8.3.64-1.21 1.3-2.37 1.96-3.49a8.19 8.19 0 0 0 .9.7l.6.33a34.85 34.85 0 0 0-1.76 3.49c-.9 2.01-.96 5.57-1.03 9a27.77 27.77 0 0 1-.5 6.27 30.15 30.15 0 0 1-4.1 7.88zm10.36-9.67c1.76-.86 3.9-1.89 6.32-3l7.12 5.62c-.52.03-1.03.05-1.55.05a28.24 28.24 0 0 1-11.89-2.67zm19.05 1.68a26.37 26.37 0 0 1-3.45.73l-7.73-6.1c2.67-1.21 5.62-2.49 8.67-3.73l8.02 6.3a16.05 16.05 0 0 1-5.51 2.8zm6.69-3.79l-7.58-5.96a136.57 136.57 0 0 1 13.98-4.77 24.63 24.63 0 0 1-6.4 10.73z" fill="#272727"/>
</svg>